<?xml version="1.0" encoding="UTF-8" standalone="no"?>
<svg
   version="1.1"
   id="Layer_1"
   x="0px"
   y="0px"
   viewBox="0 0 2603.1589 997.13613"
   enable-background="new 0 0 4000 2000"
   xml:space="preserve"
   sodipodi:docname="bottomLayer.svg"
   inkscape:version="1.1.2 (1:1.1+202202050950+0a00cf5339)"
   width="1229.5975"
   height="470.99551"
   xmlns:inkscape="http://www.inkscape.org/namespaces/inkscape"
   xmlns:sodipodi="http://sodipodi.sourceforge.net/DTD/sodipodi-0.dtd"
   xmlns="http://www.w3.org/2000/svg"
   xmlns:svg="http://www.w3.org/2000/svg"><defs
   id="defs6892" /><sodipodi:namedview
   id="namedview6890"
   pagecolor="#505050"
   bordercolor="#eeeeee"
   borderopacity="1"
   inkscape:pageshadow="0"
   inkscape:pageopacity="0"
   inkscape:pagecheckerboard="0"
   showgrid="false"
   inkscape:zoom="0.70003572"
   inkscape:cx="990.66373"
   inkscape:cy="84.281414"
   inkscape:window-width="1366"
   inkscape:window-height="731"
   inkscape:window-x="0"
   inkscape:window-y="0"
   inkscape:window-maximized="1"
   inkscape:current-layer="g6887"
   scale-x="8.00157"
   lock-margins="false"
   units="px"
   width="2000mm"
   inkscape:document-units="px" />
<g
   id="g6887"
   transform="translate(11.41333,-1007.5598)">
	
	
	
	
	
	
	
	
	
	
	
	
	
	
	
	
	
	
	
	
	
	
	
	
	
	
	
	
	
	
	
	
	
	
	
	
	
	
	
	
	
	
	
	
	
	
	
	
	
	
	
	
	
	
	
	
	
	
	
	
	
	
	
	
	
	
	
	
	
	
	
	
	
	
	
	
	
	
	
	
	
	
	
	
	
	
	
	
	
	
	
	
	
	
	
	
	
	
	
	
	
	
	
	
	
	
	
	
	
	
	
	
	
	
	
	
	
	
	
	
	
	
	
	
	
	
	
	
	
	
	
	
	
	
	
	
	
	
	
	
	
	
	
	
	
	
	
	
	
	
	
	
	
	
	
	
	
	
	
	
	
	
	
	
	
	
	
	
	
	
	
	
	
	
	
	
	
	
	
	
	
	
	
	
	
	
	
	
	
	
	
	
	
	
	
	
	
	
	
	
	
	
	
	
	
	
	
	
	
	
	
	
	
	
	
	
	
	
	
	
	
	
	
	
	
	
	
	
	
	
	
	
	
	
	
	
	
	
	
	
	
	
	
	
	
	
	
	
	
	
	
	
	
	
	
	
	
	
	
	
	
	
	
	
	
	
	
	
	
	
	
	
	
	
	
	
	
	
	
	
	
	
	
	
	
	
	
	
	
	
	
	
	
	
	
	
	
	
	
	
	
	
	
	
	
	
	
	
	
	
	
	
	
	
	
	
	
	
	
	
	
	
	
	
	
	
	
	
	
	
	
	
	
	
	
	
	
	
	
	
	
	
	
	
	
	
	
	
	
	
	
	
	
	
	
	
	
	
	
	
	
	
	
	
	
	
	
	
	
	
	
	
	
	
	
	
	
	
	
	
	
	
	
	
	
	
	
	
	
	
	
	
	
	
	
	
	
	
	
	
	
	
	
	
	
	
	
	
	
	
	
	
	
	
	
	
	
	
	
	
	
	
	
	
	
	
	
	
	
	
	
	
	
	
	
	
	
	
	
	
	
	
	
	
	
	
	
	
	
	
	
	
	
	
	
	
	
	
	
	
	
	
	
	
	
	
	
	
	
	
	
	
	
	
	
	
	
	
	
	
	
	
	
	
	
	
	
	
	
	
	
	
	
	
	
	
	
	
	
	
	
	
	
	
	
	
	
	
	
	
	
	
	
	
	
	
	
	
	
	
	
	
	
	
	
	
	
	
	
	
	
	
	
	
	
	
	
	
	
	
	
	
	
	
	
	
	
	
	
	
	
	
	
	
	
	
	
	
	
	
	
	
	
	
	
	
	
	
	
	
	
	
	
	
	
	
	
	
	
	
	
	
	
	
	
	
	
	
	
	
	
	
	
	
	
	
	
	
	
	
	
	
	
	
	
	
	
	
	
	
	
	
	
	
	
	
	
	
	
	
	
	
	
	
	
	
	
	
	
	
	
	
	
	
	
	
	
	
	
	
	
	
	
	
	
	
	
	
	
	
	
	
	
	
	
	
	
	
	
	
	
	
	
	
	
	
	
	
	
	
	
	
	
	
	
	
	
	
	
	
	
	
	
	
	
	
	
	
	
	
	
	
	
	
	
	
	
	
	
	
	
	
	
	
	
	
	
	
	
	
	
	
	
	
	
	
	
	
	
	
	
	
	
	
	
	
	
	
	
	
	
	
	
	
	
	
	
	
	
	
	
	
	
	
	
	
	
	
	
	
	
	
	
	
	
	
	
	
	
	
	
	
	
	
	
	
	
	
	
	
	
	
	
	
	
	
	
	
	
	
	
	
	
	
	
	
	
	
	
	
	
	
	
	
	
	
	
	
	
	
	
	
	
	
	
	
	
	
	
	
	
	
	
	
	
	
	
	
	
	
	
	
	
	
	
	
	
	
	
	
	
	
	
	
	
	
	
	
	
	
	
	
	
	
	
	
	
	
	
	
	
	
	
	
	
	
	
	
	
	
	
	
	
	
	
	
	
	
	
	
	
	
	
	
	
	
	
	
	
	
	
	
	
	
	
	
	
	
	
	
	
	
	
	
	
	
	
	
	
	
	
	
	
	
	
	
	
	
	
	
	
	
	
	
	
	
	
	
	
	
	
	
	
	
	
	
	
	
	
	
	
	
	
	
	
	
	
	
	
	
	
	
	
	
	
	
	
	
	
	
	
	
	
	
	
	
	
	
	
	
	
	
	
	
	
	
	
	
	
	
	
	
	
	
	
	
	
	
	
	
	
	
	
	
	
	
	
	
	
	
	
	
	
	
	
	
	
	
	
	
	
	
	
	
	
	
	
	
	
	
	
	
	
	
	
	
	
	
	
	
	
	
	
	
	
	
	
	
	
	
	
	
	
	
	
	
	
	
	
	
	
	
	
	
	
	
	
	
	
	
	
	
	
	
	
	
	
	
	
	
	
	
	
	
	
	
	
	
	
	
	
	
	
	
	
	
	
	
	
	
	
	
	
	
	
	
	
	
	
	
	
	
	
	
	
	
	
	
	
	
	
	
	
	
	
	
	
	
	
	
	
	
	
	
	
	
	
	
	
	
	
	
	
	
	
	
	
	
	
	
	
	
	
	
	
	
	
	
	
	
	
	
	
	
	
	
	
	
	
	
	
	
	
	
	
	
	
	
	
	
	
	
	
	
	
	
	
	
	
	
	
	
	
	
	
	
	
	
	
	
	
	
	
	
	
	
	
	
	
	
	
	
	
	
	
	
	
	
	
	
	
	
	
	
	
	
	
	
	
	
	
	
	
	
	
	
	
	
	
	
	
	
	
	
	
	
	
	
	
	
	
	
	
	
	
	
	
	
	
	
	
	
	
	
	
	
	
	
	
	
	
	
	
	
	
	
	
	
	
	
	
	
	
	
	
	
	
	
	
	
	
	
	
	
	
	
	
	
	
	
	
	
	
	
	
	
	
	
	
	
	
	
	
	
	
	
	
	
	
	
	
	
	
	
	
	
	
	
	
	
	
	
	
	
	
	
	
	
	
	
	
	
	
	
	
	
	
	
	
	
	
	
	
	
	
	
	
	
	
	
	
	
	
	
	
	
	
	
	
	
	
	
	
	
	
	
	
	
	
	
	
	
	
	
	
	
	
	
	
	
	
	
	
	
	
	
	
	
	
	
	
	
	
	
	
	
	
	
	
	
	
	
	
	
	
	
	
	
	
	
	
	
	
	
	
	
	
	
	
	
	
	
	
	
	
	
	
	
	
	
	
	
	
	
	
	
	
	
	
	
	
	
	
	
	
	
	
	
	
	
	
	
	
	
	
	
	
	
	
	
	
	
	
	
	
	
	
	
	
	
	
	
	
	
	
	
	
	
	
	
	
	
	
	
	
	
	
	
	
	
	
	
	
	
	
	
	
	
	
	
	
	
	
	
	
	
	
	
	
	
	
	
	
	
	
	
	
	
	
	
	
	
	
	
	
	
	
	
	
	
	
	
	
	
	
	
	
	
	
	
	
	
	
	
	
	
	
	
	
	
	
	
	
	
	
	
	
	
	
	
	
	
	
	
	
	
	
	
	
	
	
	
	
	
	
	
	
	
	
	
	
	
	
	
	
	
	
	
	
	
	
	
	
	
	
	
	
	
	
	
	
	
	
	
	
	
	
	
	
	
	
	
	
	
	
	
	
	
	
	
	
	
	
	
	
	
	
	
	
	
	
	
	
	
	
	
	
	
	
	
	
	
	
	
	
	
	
	
	
	
	
	
	
	
	
	
	
	
	
	
	
	
	
	
	
	
	
	
	
	
	
	
	
	
	
	
	
	
	
	
	
	
	
	
	
	
	
	
	
	
	
	
	
	
	
	
	
	
	
	
	
	
	
	
	
	
	
	
<path
   d="m 872.2999,1783.8628 c -5.5233,-1.333 -14.6522,-8.5826 -18.0193,-10.5923 -3.358,-2.02 -7.56,-4.7066 -10.5621,-5.9063 -3.002,-1.2099 -6.7242,-2.4199 -1.5615,-4.9013 5.1599,-2.4815 20.1699,-3.8247 20.1699,-3.8247 0,0 6.248,7.6494 10.9271,7.6494 0,0 -8.8445,3.8862 -17.7716,2.1431 25.5794,13.5556 32.9009,3.4658 32.9009,3.4658 l 0.844,10.6333 c -4.0828,3.8862 -11.4042,2.6762 -16.9274,1.333 z m -36.3864,90.4598 v -16.5087 c 0,0 19.0919,5.0962 37.4598,1.7431 -16.0834,10.7359 -37.4598,14.7656 -37.4598,14.7656 z m -1.7211,27.3677 6.2434,-12.7046 9.7711,-0.7075 z m 20.9689,-102.5287 c -4.4772,3.9375 -1.7523,7.7007 -1.7523,7.7007 0,0 -12.4925,-1.7944 -24.66,-11.8125 13.9282,-3.3941 26.4123,4.1118 26.4123,4.1118 z m -95.25628,50.7362 c 0,0 -9.3656,-11.5458 -15.85034,-12.2123 12.24741,-4.9732 22.09378,-12.2124 22.09378,-12.2124 z m -24.73613,-113.5413 c -8.6454,4.0297 -30.49977,5.9062 -35.78263,4.2964 -5.28378,-1.6099 -29.53913,-23.3481 -31.46036,-24.6915 0,0 7.9252,-0.7177 11.44739,1.0767 3.52219,1.7842 3.04238,1.7842 9.92711,2.8609 6.88388,1.0766 11.36666,-3.0454 15.36872,-0.8921 4.00297,2.1431 12.32815,2.3276 15.53019,0.5332 3.20197,-1.7842 10.72713,2.502 15.2099,-1.0767 4.48284,-3.5786 13.44846,-2.502 13.44846,-2.502 0,0 -5.04338,16.3755 -13.68878,20.3951 z m -35.78263,24.1582 c -5.28378,-1.21 -6.60404,-2.2764 -9.84638,1.0766 -3.24143,3.353 6.48475,16.3755 6.48475,16.3755 0,0 -11.64742,-6.4498 -15.85035,-8.5928 -4.20299,-2.1431 -8.76286,3.7632 -10.92721,1.3433 -4.56352,-5.1064 -6.24436,-8.7261 -5.88378,-10.0694 0.36059,-1.3432 5.88378,-4.1528 13.56859,-3.8862 7.68481,0.2666 9.84637,-1.7431 13.32819,-1.7431 3.4828,0 9.84645,1.7431 12.7282,1.6098 2.88273,-0.1333 5.40397,-0.5434 5.40397,-0.5434 l 1.80104,4.0297 c 0,0 -5.52416,1.6099 -10.80702,0.4 z m -72.64688,-139.8324 c -0.47987,-8.1929 0,-11.2793 0,-11.2793 4.92409,8.726 13.3291,14.8989 13.3291,14.8989 0,0 -11.64735,-2.2764 -13.3291,-3.6196 z m -22.93425,86.3583 -10.50605,-12.1509 c 0,0 1.92124,-2.6762 4.02228,-3.8247 2.10098,-1.1382 4.32221,0 5.94429,1.6816 1.62033,1.6715 0.60007,13.6173 0.53948,14.294 z m -39.38458,-93.6078 c -2.64234,2.3276 -13.04841,7.9672 -13.04841,7.9672 0,0 4.16262,-9.7514 1.52119,-13.5146 0,0 8.48484,-1.7842 19.05147,-4.2041 -6.00397,2.5019 -4.88282,7.4238 -7.52425,9.7515 z m -41.9077,-12.3458 c 1.56156,-0.5331 6.00396,0.4 9.48676,-3.0863 3.48273,-3.4864 7.20403,-9.2593 7.32423,-11.546 0.1211,-2.2763 2.52214,-4.1528 5.16357,-3.6196 2.64144,0.5435 12.48781,3.0865 16.93112,1.3433 -8.16552,-2.6865 -10.20695,-6.9829 -10.20695,-6.9829 l 20.29281,2.1533 c -11.40703,10.7359 -38.66432,26.3012 -42.3866,26.1679 -3.72221,-0.1332 -8.16559,-3.8964 -6.60494,-4.4297 z m -114.19219,54.0381 c 2.0818,2.1431 -7.84531,13.4224 -26.09676,21.1128 13.12824,-9.6592 19.69275,-25.5835 15.68985,-28.0957 -4.00297,-2.5019 -7.52425,3.1377 -11.68779,2.1943 -4.16164,-0.9331 -5.12229,-2.0097 -7.84446,-1.8354 -2.7221,0.1846 -4.48278,-3.9375 -8.00497,-3.5786 -3.52218,0.3589 -5.9242,-0.3589 -5.9242,-0.3589 0,0 11.84834,-8.2236 14.88982,-7.6904 3.04232,0.5332 3.52219,5.373 12.64837,6.2651 9.1252,0.8921 13.76854,2.8608 20.49276,2.6865 -6.24435,2.3174 -6.24435,7.1573 -4.16262,9.3003 z m -14.21721,-38.247 c 7.049,2.707 18.3578,-0.5025 22.79383,-1.9791 -2.57077,0.9332 -7.12329,2.7173 -9.29681,4.3067 -3.12221,2.2764 -9.48579,4.8296 -16.09073,3.7119 0.89727,-1.1689 1.85421,-3.4965 2.59371,-6.0395 z m -87.8486,74.2587 c 1.08169,2.8198 -11.7667,27.3779 -11.7667,27.3779 0,0 3.72221,-24.5581 0.72026,-27.6445 -3.00201,-3.0864 -14.76959,-5.1064 -14.76959,-5.1064 9.84638,-2.6763 16.45037,-18.5186 16.45037,-18.5186 0,0 4.92319,4.1631 7.68481,4.1631 -4.08182,4.2964 -0.72019,9.126 2.28176,10.7358 -2.88176,2.6865 -1.68078,6.1729 -0.60091,8.9927 z m -27.13629,-40.8003 12.60708,2.8198 c 0,0 -13.80806,1.7432 -22.57365,4.9629 5.40304,-2.8198 9.96657,-7.7827 9.96657,-7.7827 z m -60.19854,29.48 c 0,0 0.90372,-3.435 1.56889,-5.7934 2.95612,0.4203 4.99476,0.6049 4.99476,0.6049 z m -10.64642,62.9897 c -8.16556,-3.3633 -14.04936,-10.0693 -14.04936,-10.0693 9.48582,2.8198 18.73217,-2.6866 21.73324,-6.0396 0,5.3731 -7.92518,8.3261 -7.68388,16.1089 z m -27.37757,-25.3682 c 0,0 6.7242,-4.5629 12.60708,-9.7924 7.20496,2.5429 15.97055,0 15.97055,0 0,0 -15.48979,10.7358 -28.57763,9.7924 z m 809.23557,188.641 c 0,0 -9.927,0.4511 -16.8907,1.1587 -6.9637,0.7177 -11.3676,-1.6919 -17.7716,-3.3018 -6.404,-1.6201 -8.7252,-4.6553 -13.7713,-8.0596 -5.037,-3.394 -5.3582,-6.3471 -4.3214,-8.0493 1.0459,-1.7021 6.4866,-3.5786 9.8446,-6.0805 3.3671,-2.5122 5.2021,-3.4966 13.8539,-2.061 8.6426,1.4355 18.6524,-5.0142 18.6524,-5.0142 0,0 -10.9731,1.1689 -17.9367,-2.0508 6.4865,0.7998 7.5232,-2.6865 13.4502,-4.7475 5.9269,-2.0508 9.0463,-10.1104 9.0463,-10.1104 0,0 -17.4504,1.5279 -25.0563,-0.5332 -7.6059,-2.061 -11.9273,-3.9375 -25.772,-14.6733 26.8179,4.563 38.2589,-8.7671 38.2589,-8.7671 0,0 -8.0004,3.9375 -22.2488,0 6.725,-2.0611 14.2484,-7.7827 14.2484,-7.7827 0,0 -13.3678,-0.2666 -21.781,-2.1431 -8.4041,-1.8867 -24.2489,-10.2949 -26.4968,-13.0635 -2.2386,-2.7787 -6.0828,-12.7045 -10.0005,-22.2816 20.4873,16.7343 35.5431,5.373 35.5431,5.373 0,0 -10.0922,-0.1846 -14.8906,-4.3887 6.9636,1.3433 7.2022,-8.1416 10.1656,-9.3925 2.9635,-1.251 3.202,-3.3121 0.5597,-5.5474 -2.6424,-2.2354 -4.5599,0.3589 -6.1655,1.1587 -1.5964,0.81 -2.4037,1.6201 -5.5966,-4.9116 -3.202,-6.5318 -9.8537,-10.6538 -13.7713,-13.5147 -3.9268,-2.8608 -5.8444,-10.5512 -9.3675,-15.832 -3.5231,-5.2808 -6.0003,-4.4809 -6.6425,-4.6552 -0.6423,-0.1744 -0.9634,-1.1587 -0.2386,-3.312 7.2022,1.9687 12.4869,-4.8297 16.8082,-9.4849 4.3214,-4.645 4.1653,-15.022 4.1653,-15.022 0,0 -4.9635,8.0493 -8.9729,8.0493 -0.633,-16.4677 -7.8444,-23.7992 -10.5601,-28.8134 -2.725,-5.0039 -0.4864,-21.8306 -1.2846,-30.772 -0.7982,-8.9516 -5.6057,-13.0634 -5.6057,-21.2973 0,-8.2236 1.1193,-16.0986 -3.5232,-16.4575 -4.6424,-0.3589 -2.8808,26.4858 -3.5231,41.5078 -6.0828,4.4809 -3.202,33.1098 -3.835,40.8003 -0.6423,7.6904 -10.7254,18.9696 -10.7254,18.9696 l 10.0831,-4.6553 c -0.9634,7.1573 2.8809,16.8165 2.8809,16.8165 0,0 -5.4406,4.6552 -6.404,10.3769 -3.8442,-1.7842 -30.8998,-8.2236 -44.1885,-9.8335 -13.2888,-1.6098 -17.611,-9.8437 -17.611,-9.8437 0,0 34.266,8.0493 47.707,0.7178 0,0 -20.3304,-5.1885 -20.0102,-5.732 0.3211,-0.5332 6.0838,-3.5786 10.7253,-3.9375 4.6425,-0.3589 9.7712,2.1533 12.4869,-1.251 2.7249,-3.394 11.6887,-14.4887 7.0463,-18.4262 -4.6424,-3.9375 -10.2483,4.6553 -15.6889,2.3276 -5.4407,-2.3276 -5.9269,-3.9375 -21.9333,-9.4848 20.6488,1.6098 26.2546,-12.1714 22.5755,-15.5654 -3.6883,-3.4043 -9.128,1.9687 -15.2118,0.5331 -6.0838,-1.4355 -11.8474,1.4356 -25.4564,-3.0453 -13.608,-4.4708 -23.85435,-20.5694 -23.85435,-20.5694 0,0 19.85235,4.1118 24.01495,4.1118 4.1626,0 3.8424,-2.6865 15.3696,-4.1118 11.5282,-1.4355 29.7804,-21.8818 29.7804,-21.8818 0,0 -7.6884,5.1064 -24.8572,4.6963 11.5263,-8.9824 17.5358,-20.395 20.169,-24.4248 2.6423,-4.0195 5.2847,-11.1357 5.2847,-11.1357 0,0 -23.2921,17.042 -29.8961,18.7851 -6.604,1.7535 -27.4977,-2.4096 -33.621,-2.4096 -6.12422,0 -12.36858,-1.7432 -21.01398,-9.5259 15.96963,-1.21 19.45242,-4.8398 19.45242,-7.3828 0,-2.5532 -3.48279,-5.9063 -3.48279,-5.9063 0,0 12.96855,-3.353 24.73615,-11.269 11.7676,-7.9262 15.2504,-24.9682 15.2504,-24.9682 0,0 -4.3232,7.2495 -8.1656,9.936 -3.8424,2.6763 -15.7302,5.9062 -20.2937,6.3062 -4.56264,0.3998 -7.56465,0.1332 -12.36764,-4.2964 -4.803,-4.4297 -11.64644,-4.9629 -14.16859,-5.773 -2.52123,-0.7997 -6.12423,-6.5728 -2.40201,-8.5825 3.72318,-2.02 4.20299,4.563 17.53216,0.6665 13.32818,-3.8862 17.17058,-18.5185 23.89478,-31.1308 -1.6808,1.6099 -7.3252,7.6494 -11.7676,8.9927 -4.4433,1.3432 -18.13122,2.1431 -18.13122,2.1431 0,0 -3.00286,-4.2965 -7.80494,-5.3629 5.2828,-1.6098 11.88774,-9.4028 17.41099,-18.3852 -6.48475,5.3628 -18.25144,10.459 -29.89333,8.4492 -0.23396,-5.6396 -3.00748,-5.6396 -3.84884,-6.5727 -0.84039,-0.9434 -0.23942,-7.1163 2.88182,-15.2989 3.12214,-8.1928 -2.40104,-13.6889 -1.44046,-19.4618 0.96065,-5.773 -0.12019,-15.2988 -1.08078,-21.0718 -0.96065,-5.7627 -7.20501,-6.9727 -7.9252,-11.9355 -0.7202,-4.9732 0.96058,-11.146 -2.28085,-11.5459 -3.2424,-0.4 -4.44338,12.6123 -3.00201,17.4419 1.44045,4.8295 1.56065,18.5185 -0.60091,26.5781 -2.16072,8.0493 -1.68085,14.0888 0.4798,19.185 2.16163,5.1065 0.84137,11.4126 0.84137,14.0888 0,2.6866 -2.52215,5.9063 -5.28377,7.3828 -2.76163,1.4766 -12.48781,5.2398 -11.40703,12.479 1.08078,7.2495 4.5626,6.8497 18.97255,12.356 -1.08078,3.353 -6.60403,5.7627 -16.21092,8.5825 -9.60605,2.8198 -16.45041,10.7358 -16.45041,10.7358 0,0 -7.805,-2.8198 -8.28481,3.2197 -0.48078,6.0396 4.92319,7.1163 13.56767,7.1163 8.64631,0 13.5695,0.7998 13.5695,0.7998 0,0 -1.68085,3.4965 -6.96462,7.2495 -5.2837,3.7632 -8.5252,4.4297 -12.36761,5.2397 -3.8424,0.7998 -6.96546,9.7925 -0.36052,12.479 6.60397,2.6763 11.16755,-2.2866 20.41294,-0.9433 9.24638,1.3432 9.24638,-4.9629 10.32716,-4.0196 1.07987,0.9331 1.80013,8.3159 -2.04228,13.812 -3.8424,5.5064 -15.96969,14.0991 -19.33222,14.499 -3.36163,0.3999 -14.88885,10.2027 -26.41698,22.0048 15.37054,2.9532 19.33223,-5.7626 25.81698,-3.2196 6.48377,2.5531 18.61196,-2.9532 18.61196,-2.9532 0,0 -21.85437,12.6226 -21.13411,18.1187 0.7211,5.5063 22.45437,3.0864 22.45437,3.0864 0,0 -12.4878,12.8891 -21.25339,19.3286 -8.7656,6.4394 -19.21204,6.706 -19.21204,6.706 0,0 11.76761,-9.2592 13.92917,-11.1357 2.16156,-1.8765 2.40104,-7.3828 -1.20097,-8.8593 -3.60293,-1.4766 -18.13216,-1.0767 -25.81698,-2.9532 -7.68481,-1.8765 -17.1706,-8.5825 -17.1706,-8.5825 0,0 6.60403,-4.2964 6.96462,-6.3164 0.36052,-2.0098 0.12013,-11.5356 -3.24241,-13.4121 -3.36163,-1.8867 -5.64338,1.4765 -10.56657,1.0664 -4.92325,-0.3999 -16.69078,-6.3061 -29.17859,-18.3852 5.16358,3.0864 30.74009,6.4496 39.02496,3.8965 8.28573,-2.5533 14.64938,-2.2867 24.49575,-8.1827 -6.12416,2.2764 -18.73217,2.543 -27.25737,-3.3633 13.56858,-6.5727 13.56858,-14.2221 12.00793,-16.9086 -1.56149,-2.6763 -4.80299,-1.4765 -8.40592,-1.3433 -3.60201,0.1436 -6.12416,1.4766 -13.68878,-1.4766 -7.56461,-2.9428 -15.96961,-4.8295 -15.96961,-4.8295 0,0 18.01098,-4.6963 23.89482,-9.2593 5.88377,-4.563 11.52715,-9.9258 9.3665,-17.042 0,0 10.08586,-2.143 15.48983,-7.1059 -6.48475,0.7998 -35.54316,1.333 -48.99154,0 -13.4493,-1.3432 -19.69274,-1.0767 -23.17463,-4.4297 -3.48273,-3.3633 -9.12611,-6.4497 -9.12611,-6.4497 0,0 -0.96065,-6.706 1.08078,-7.6494 2.04136,-0.9331 10.32618,2.8198 20.41294,3.23 10.08585,0.3999 22.57455,-3.6299 22.57455,-3.6299 0,0 -9.72616,-0.7998 -14.76954,-2.8199 -5.04338,-2.0097 -9.96657,-8.1825 -9.96657,-8.1825 0,0 5.52325,2.5532 10.56663,3.353 5.04338,0.8101 9.48669,-3.0864 16.69072,-7.6494 7.20501,-4.563 8.16559,-11.0024 4.92325,-17.4419 3.48182,-2.9531 7.08475,-13.289 7.08475,-13.289 0,0 -8.40501,9.936 -14.76956,11.4125 -6.36363,1.4664 -11.16662,2.4097 -16.06231,0.6665 -4.89569,-1.7431 -8.9142,-0.6665 -13.71634,-0.81 -4.80299,-0.1333 -10.56748,-3.753 -18.25138,-13.9556 3.24143,3.6299 11.64741,2.2867 16.08982,-0.2665 4.44247,-2.543 14.04936,-11.1358 15.48982,-14.7656 1.44045,-3.6197 -1.44046,-6.8394 -3.57725,-7.6495 -2.13498,-0.7998 -2.90659,1.21 -7.22978,3.4966 -4.32312,2.2763 -7.32422,2.6865 -7.80494,1.3433 -0.48078,-1.3433 1.92117,-2.9531 5.64338,-4.0298 3.72221,-1.0766 6.84442,-5.773 8.76559,-12.0791 1.92124,-6.3062 -1.08078,-13.1455 -2.28084,-14.8989 -1.20098,-1.7432 -4.0828,-2.8096 -6.60494,1.2099 -2.52124,4.0298 -7.32423,8.3262 -10.56657,9.126 -3.2415,0.8101 -6.96462,-0.9331 -15.85041,-3.6196 5.04339,-1.0767 11.04735,-9.126 11.04735,-9.126 0,0 -13.44839,1.6099 -14.28878,1.21 -0.84039,-0.4102 -2.88182,-5.6397 -1.56156,-7.2495 1.32117,-1.6099 6.72514,-14.4991 9.00599,-17.8521 2.28175,-3.3529 2.28175,-8.0493 1.56156,-8.8593 -0.72117,-0.7998 -6.96462,11.146 -7.68482,10.4692 -0.72117,-0.6665 -1.20097,-9.6592 -1.32117,-15.9653 -0.12019,-6.3062 -1.44136,-11.5459 -2.88182,-17.042 -1.44136,-5.5064 -1.68175,-14.3657 -2.04136,-22.6816 -0.36059,-8.3262 -3.12221,-22.8149 -3.12221,-22.8149 0,0 -2.40105,25.2245 -3.96261,32.2075 -1.56058,6.9829 -1.08078,15.5654 -1.08078,24.8246 0,9.2593 -3.12214,18.1187 -3.72221,26.168 -0.6,8.0595 2.46163,18.5185 2.46163,18.5185 0,0 -10.86664,5.3731 -16.2706,5.8447 -5.40299,0.4717 -16.45041,-2.3481 -16.45041,-2.3481 0,0 6.30403,7.0445 13.32917,8.3159 -6.60403,3.6914 -16.4504,1.0766 -16.4504,1.0766 0,0 0.84039,5.3629 10.80605,10.6026 9.96656,5.2295 12.72819,2.1431 14.28884,4.1528 1.56156,2.02 19.09275,17.4521 18.49268,20.4053 -0.60091,2.9531 -9.12618,10.8691 -13.80897,12.0791 -4.68371,1.1997 -18.61197,2.4096 -34.34211,-3.3531 7.56461,12.479 24.37554,13.5455 24.37554,13.5455 0,0 -16.6908,2.0199 -22.81405,-0.7999 -6.12416,-2.8198 -10.92806,-2.2866 -10.92806,-2.2866 0,0 4.6837,10.8691 10.68676,12.3457 6.00403,1.4766 7.3252,1.7534 14.16956,4.9731 6.84442,3.2198 19.21203,0.5333 19.21203,0.5333 0,0 -19.33222,17.7187 -34.46146,20.8051 3.72221,6.706 10.32624,7.6494 22.93424,6.4394 12.608,-1.2099 27.49776,-8.0492 27.49776,-8.0492 0,0 -4.0828,8.7157 -12.608,15.9653 -8.52521,7.2495 -11.76755,6.1728 -15.60995,5.6396 -3.84241,-0.5434 -7.32423,-0.4102 -11.64742,3.4863 -4.32318,3.8863 -8.88578,6.3062 -14.88975,7.1162 -6.00306,0.7998 -9.96657,0.5333 -13.44839,-2.5532 -3.48189,-3.0864 -9.72624,-3.0864 -9.72624,-3.0864 l 0.12019,-1.8765 c 0,0 2.04143,1.1997 10.32625,-0.4101 8.28572,-1.6099 10.08676,-10.7359 10.08676,-10.7359 0,0 -2.64234,2.8199 -6.12325,3.0865 -0.1202,-5.6295 -5.52417,-7.6495 -9.36657,-14.8887 -3.84241,-7.2495 -0.47981,-7.6494 -4.20293,-15.0322 -3.72221,-7.3828 -2.52123,-10.0694 -2.76162,-18.7852 -0.24039,-8.726 -2.28176,-9.8026 -3.00202,-15.1655 -0.72019,-5.373 0,-20.6718 0,-20.6718 0,0 -6.84436,16.5088 -6.84436,23.2148 0,6.7163 0.48072,20.4053 -0.84045,25.768 -1.32026,5.3731 -7.92514,15.9757 -7.92514,15.9757 0,0 -0.96065,-6.983 -0.60006,-14.2325 -5.88378,10.2026 -1.20098,23.0815 -1.20098,23.0815 0,0 -3.24234,-3.7529 -5.76358,-11.9355 -1.56156,19.0518 11.88774,26.3013 11.88774,26.3013 0,0 -3.00195,3.0864 -7.92514,6.1728 -4.92325,3.0864 -4.20299,8.1826 -4.20299,8.1826 0,0 -2.28084,-2.9531 -6.60403,-8.0493 2.46163,12.3969 6.12416,17.7085 18.73216,21.605 -3.36253,0 -8.04533,6.0395 -13.208,6.0395 -5.16357,0 -14.16956,-5.0962 -15.97053,-5.773 -1.80195,-0.6665 -5.76364,-0.933 -3.3626,5.6397 2.40104,6.5728 9.84637,12.4789 9.84637,12.4789 0,0 -6.18377,-2.6864 -8.88579,-2.9531 7.56462,12.2125 25.09671,18.3853 26.17665,20.5386 1.08078,2.1431 1.20098,12.479 -1.20007,17.7085 -2.40201,5.2295 -25.45638,21.0717 -30.37957,20.9385 -4.92319,-0.1333 -19.33223,-10.7359 -19.33223,-10.7359 0,0 8.52521,-0.2666 20.53321,-1.7431 12.00702,-1.4766 17.41099,-9.2183 17.41099,-9.2183 0,0 -6.80497,0.8921 -9.28675,0.1743 8.72614,-5.896 12.48872,-12.52 10.56755,-13.33 -1.92215,-0.7999 -17.61192,1.1689 -25.77752,0.092 -8.16461,-1.0766 -18.73125,-9.7514 -18.73125,-9.7514 0,0 15.36963,-9.3926 16.01006,-14.1401 4.40295,-0.3487 7.60499,-7.2393 7.04438,-9.208 -0.56061,-1.9688 -3.84241,-3.5786 -6.16362,-1.4356 -2.32121,2.1533 -4.72317,1.3433 -8.08486,0.9844 -3.36253,-0.3589 -7.84531,-4.563 -7.44533,-5.7216 0.40095,-1.169 4.48284,0.1742 7.04445,-0.5436 2.5616,-0.7074 2.32212,-4.2861 5.60392,-4.2861 3.28277,0 4.96355,-0.6357 8.24542,-3.5786 2.24139,0.7999 5.20297,1.4253 6.32321,-1.4355 1.12121,-2.8608 -0.55964,-5.814 -0.55964,-5.814 0,0 4.803,-5.1885 4.24245,-9.7514 3.84241,-1.9688 6.24436,-3.7632 8.72523,-9.7515 -2.96165,3.2197 -9.12527,6.2651 -14.88885,6.2651 -5.76364,0 -9.44639,1.5176 -12.96858,1.5176 -3.52219,0 -14.56863,1.7022 -14.16865,-0.1846 0.40004,-1.8764 4.24245,-5.0962 9.68581,-6.6137 5.44343,-1.5279 9.72624,-4.8296 10.52718,-7.5161 0.80002,-2.6865 -1.5212,-6.7573 -3.72313,-5.5474 -2.20101,1.2099 -3.8424,1.4253 -5.68375,1.2099 -1.84049,-0.2255 -3.80203,-3.5375 -6.9637,-3.1787 -3.16252,0.3589 -5.3636,-0.851 -5.12321,-2.0097 0.24039,-1.169 1.07987,-0.6768 6.00397,-4.2041 4.92227,-3.5376 5.76364,-10.6948 5.76364,-10.6948 0,0 -2.52215,2.8608 -4.44338,3.0454 -0.76057,-1.7021 -4.24239,-1.5688 -5.92414,-1.5688 -1.68085,0 -4.96265,-1.6612 -5.12321,-3.0455 -0.15966,-1.3842 2.6818,-2.1943 4.64334,-3.7119 1.9616,-1.5175 5.16357,-4.245 4.5232,-6.8393 -0.64134,-2.5943 -4.16262,-3.0454 -5.32414,-3.8555 -1.1606,-0.7998 -4.12225,-2.9941 -4.12225,-5.0551 0,-2.0508 0.88082,-4.6451 1.04139,-9.0337 0.15958,-4.3785 0.15958,-8.8594 -1.36154,-12.7867 -1.5212,-3.9374 -0.80009,-14.499 -0.80009,-14.499 0,0 -2.32212,5.7218 -2.16156,12.5303 0.15965,6.7984 -1.04132,22.9892 -3.12215,24.6914 -2.08089,1.7021 -5.92329,4.1118 -6.32418,8.5825 -0.40004,4.481 5.44336,7.2495 5.44336,7.2495 0,0 -6.96364,0.9844 -8.88579,5.1885 -1.92026,4.2041 3.76258,12.1713 3.76258,12.1713 0,0 -2.80102,0 -6.32418,-0.2665 -3.52219,-0.2769 -8.6454,-3.1378 -8.6454,-3.1378 0,0 -0.64037,2.9532 5.28377,6.2652 -3.68184,0.092 -4.48277,4.2451 -4.48277,4.2451 0,0 -4.68286,-3.2197 -9.48677,-9.3926 4.32319,18.3853 25.81698,24.1172 25.81698,24.1172 0,0 -1.76158,1.8764 -4.16263,2.5942 -2.40104,0.7076 -5.92414,0.441 -11.04734,0.441 -5.12321,0 -8.48484,4.563 -8.40508,7.2495 0.0798,2.6864 2.40104,7.6083 8.64547,6.5317 -0.32022,2.3276 4.08273,4.0298 9.68672,7.1572 -6.08471,-0.8921 -16.33112,1.1587 -19.85331,2.3277 -3.52226,1.1587 -10.80703,-0.6256 -10.80703,-0.6256 l 2.64234,12.7046 c 0,0 4.56267,0.3589 5.84341,3.1275 1.2808,2.7788 6.24344,2.6865 6.24344,2.6865 0,0 -3.60201,3.394 -9.64544,2.9531 3.96169,6.7061 24.01503,0.3999 24.01503,2.4097 0,2.02 -10.68677,9.4028 -15.61002,11.2792 -3.11025,1.1895 -6.9847,0.8716 -9.41786,0.482 0.63121,-3.353 0.66787,-6.3779 -0.54871,-6.9214 -2.56154,-1.169 -8.08479,0.8921 -12.32717,2.9429 -4.24336,2.061 -11.84744,0.1846 -11.84744,0.1846 0,0 6.4031,-1.7945 7.68481,-5.0962 -5.36359,-1.0767 -10.24732,-8.9517 -12.56854,-9.3105 -2.32121,-0.3589 -6.24344,3.0454 -8.96561,2.5942 -2.72126,-0.4409 -2.56161,-2.8609 -3.60202,-5.6397 -1.04041,-2.7685 0.88076,-4.4707 0,-8.4902 -0.88076,-4.0298 -5.20394,-7.2495 -6.32418,-9.7515 -1.12024,-2.5122 -1.44137,-10.1103 -1.44137,-14.9501 0,-4.8296 1.60193,-21.646 -1.52028,-21.5537 -3.12214,0.082 -1.68169,5.7217 -1.92208,12.7045 -0.23948,6.9727 -1.68085,8.0494 -2.5616,12.6124 -0.87985,4.563 1.52119,2.143 0.64127,7.7826 -0.88075,5.6397 -2.88266,11.1871 -6.48474,15.75 -3.04232,0.082 -5.20297,4.3785 -7.52419,6.1729 -2.32219,1.7841 -3.3626,4.3784 -1.60101,5.0962 1.7606,0.7178 3.12123,2.6865 2.32121,3.4863 -0.80093,0.81 -0.88076,3.0454 1.52119,3.4043 2.40104,0.3589 4.08273,5.5473 3.20106,7.4238 -0.87984,1.8765 -10.64639,0.3589 -14.80901,0.8921 -4.16263,0.5434 -6.56367,3.312 -9.04545,2.4199 -2.48177,-0.892 -5.68375,-3.8452 -7.12511,-1.7944 -1.44046,2.061 0.32022,4.2963 0.80093,6.1728 0.48078,1.8867 2.32122,3.4043 2.32122,6.5317 -8.56467,-1.1586 -16.81003,4.0299 -18.97161,4.1221 -2.16158,0.082 -4.88282,-0.3589 -5.68379,0.7998 -0.80095,1.169 -1.92119,2.1533 -4.64335,0.9024 -2.72125,-1.2613 -7.28479,-0.4512 -7.28479,-0.4512 0,0 3.52221,-5.2807 7.44534,-11.9048 3.92223,-6.6138 1.04043,-9.4745 1.52027,-11.4433 0.48076,-1.9688 8.56558,-6.6241 9.12616,-14.3145 -2.5616,0.3487 -8.80504,6.4395 -8.80504,6.4395 0,0 1.68082,-5.0141 2.8818,-8.2339 1.20006,-3.2197 0.56058,-9.3925 -0.0798,-10.2026 -0.6404,-0.7998 -2.8818,-1.4253 -0.6404,-3.4863 2.24048,-2.0611 2.96162,-7.7828 2.96162,-7.7828 0,0 -18.33215,18.6109 -19.45239,18.252 -1.12116,-0.3589 -2.08176,-4.8296 -2.08176,-4.8296 0,0 3.60294,-0.2666 5.76452,-0.8921 2.16066,-0.6255 4.24242,-6.4497 4.24242,-8.4184 0,-1.9688 -3.76258,-1.0664 -4.32316,-1.7842 -0.56058,-0.7178 0.88078,-1.0767 2.2414,-2.502 1.36062,-1.4355 0.24038,-6.8085 -3.44238,-8.1415 -3.68184,-1.3433 -9.9262,-4.1221 -10.8868,-6.7163 -0.9606,-2.5943 0,-7.5162 0,-7.5162 0,0 6.404,0.9844 12.08778,4.481 5.68378,3.4863 16.65041,8.5825 31.37964,0.7075 -6.88387,1.8867 -18.41107,-0.3589 -22.81405,-5.8139 4.08277,0.81 10.32622,-3.8452 11.8474,-12.0791 1.52118,-8.2236 -1.68082,-8.0494 -3.92222,-6.8906 -2.24232,1.1689 -6.88477,1.1689 -8.72614,-1.0665 -1.84047,-2.2353 -6.80403,-2.7788 -7.68389,-4.8295 -0.88078,-2.0611 -4.40298,-4.9219 -6.00398,-6.6241 -1.60192,-1.7021 -3.36256,-3.5786 -2.16158,-9.1259 8.40502,5.4551 16.41002,0.81 16.41002,0.81 0,0 -1.92119,-2.1533 -7.3646,-4.2143 2.64142,0 14.96959,-11.1768 13.20895,-16.5498 -1.76156,-5.3628 -13.36859,-4.2041 -16.25039,-2.9531 -2.88272,1.2612 -8.12611,0.2768 -10.40696,-0.9331 -2.28178,-1.21 -1.0808,-2.2867 -1.20098,-4.1631 -0.12019,-1.8765 -1.92121,-0.8101 -2.40196,-3.4863 -0.47985,-2.6866 0.72114,-5.2398 2.76161,-3.63 2.04139,1.6099 5.28376,2.1534 8.52613,-0.933 3.24145,-3.0865 5.16357,-9.2593 2.40104,-11.1358 -2.76161,-1.8866 -6.00307,-5.7729 -8.04445,-10.8793 -2.04139,-5.0962 -7.44535,-5.4962 -7.44535,-5.4962 0,0 0.24038,-17.0419 0,-25.2348 -0.23946,-8.1826 -0.72022,-30.1875 -2.28085,-30.1875 -1.56155,0 -0.72022,16.4986 -0.84132,22.4048 -0.12019,5.9062 -2.40105,14.6324 -4.03875,19.062 -1.63861,4.4297 -1.18446,13.6172 -1.18446,13.6172 0,0 -3.48183,-4.0913 -9.42526,-3.4248 4.32224,1.8867 6.66365,10.1411 6.12325,11.0127 -0.5404,0.8715 -5.70305,5.5678 -5.88379,10.0591 -5.40304,-2.8198 -14.40901,0 -14.40901,0 0,0 9.78675,1.4765 13.0282,6.3779 -8.58577,-0.7383 -11.9474,4.4501 -11.9474,4.4501 0,0 5.04337,-0.7177 10.48678,-1.0766 5.44339,-0.3589 11.36756,0.7177 13.21169,3.4966 -3.19925,6.7983 -9.68949,9.9257 -13.45207,9.9257 -3.76259,0 -6.64439,3.4043 -9.36563,3.312 -2.72216,-0.092 -5.4434,1.6099 -12.96856,2.1431 3.12218,1.4356 6.7242,2.2353 9.68582,2.3277 2.96254,0.092 3.68276,3.0454 7.92518,4.1117 4.24243,1.0767 4.88375,0.4512 8.96653,4.481 4.08186,4.0195 9.12524,3.9375 9.20506,4.9219 0.0798,0.9844 -1.52118,3.1274 -4.803,3.9272 -3.28182,0.8101 -10.00602,2.7788 -14.08881,2.7788 -4.08186,0 -6.16362,2.2354 -9.76564,2.7686 -3.60294,0.5434 -9.68675,-2.0508 -11.20792,0 -1.52027,2.061 -1.04042,5.3731 4.16352,8.3262 5.2021,2.9531 14.96867,7.6904 14.96867,7.6904 0,0 -5.92417,3.5786 -8.40503,5.6396 -2.48178,2.0611 -5.60396,3.2198 -11.68685,3.753 -6.08472,0.5434 -14.88976,0.092 -14.88976,0.092 0,0 4.64244,4.563 7.92426,5.0142 3.28274,0.4409 4.00297,1.7842 5.68378,3.7529 1.68174,1.9687 15.77055,2.1533 24.41504,2.1533 8.64632,0 11.4483,-3.4043 11.4483,-3.4043 0,0 -0.88078,4.9219 -3.76259,5.4551 -2.8818,0.5435 -3.20199,1.9687 -8.56557,5.0142 -5.36359,3.0351 -7.20405,3.1274 -15.36961,3.0351 -8.16557,-0.082 -11.92814,-1.2509 -22.81495,-2.6763 8.72614,9.3003 25.93713,8.0493 25.93713,8.0493 0,0 -6.72421,4.3887 -14.64939,4.8297 9.76657,4.8295 17.93121,0.4511 20.17261,0.892 2.2414,0.4512 5.20302,3.3121 8.72522,4.7476 3.52221,1.4252 4.56355,4.2041 8.72614,6.1729 4.16261,1.9687 7.76463,1.0766 7.44443,1.9687 -0.3202,0.892 -3.04144,0.7998 -6.00307,1.4253 -2.96253,0.6255 -5.12411,4.2041 -11.12718,4.6553 -6.00398,0.4511 -14.40992,-3.2198 -16.73114,-1.8765 -2.32122,1.3432 -0.72022,9.3003 1.601,13.9555 2.32122,4.6553 13.04838,8.4082 19.37257,9.5772 6.32418,1.1586 10.16658,4.4706 10.32622,7.3315 0.15964,2.8609 -11.60703,10.4692 -16.65041,11.8125 -5.04338,1.3432 -8.80596,-0.5434 -13.7686,0 -4.96357,0.5332 -9.04634,6.6137 -6.16362,12.6123 2.88088,5.9985 14.00806,12.52 14.00806,12.52 0,0 -5.60304,2.6045 -9.68582,1.8867 -4.08278,-0.7178 -11.52721,0.441 -6.80494,7.1573 3.05245,4.3373 13.56859,6.6855 20.64419,7.8031 -0.40553,0.3487 -0.71105,0.605 -0.71105,0.605 0,0 -8.88578,7.957 -15.28978,11.7202 -6.404,3.753 -21.97363,8.8799 -21.97363,8.8799 0,0 6.78385,-9.8642 5.8838,-13.0224 -0.90097,-3.148 -3.78277,-4.6246 -9.12616,-3.1992 13.28876,-7.1573 11.60702,-16.6319 10.5666,-17.3496 -1.04042,-0.7178 -2.96162,-0.6256 -5.4434,1.5175 -2.48086,2.1533 -11.8474,4.1118 -15.53017,3.4043 -3.68184,-0.7177 -10.80606,-4.4809 -10.80606,-4.4809 0,0 5.28284,0.9843 7.36369,0 2.08176,-0.9844 3.12217,-2.502 6.96549,-2.8609 3.84241,-0.3589 8.00409,-5.814 4.96264,-13.9555 12.24743,-1.4356 22.49384,-14.9399 20.81302,-15.832 -1.68082,-0.9024 -7.84445,6.706 -13.36859,7.1572 2.80198,-8.5005 4.40298,-19.5953 0.48076,-20.5796 -3.92222,-0.9844 -6.7242,7.1572 -9.28672,7.6084 -2.5616,0.4409 -5.52322,3.4863 -8.40502,4.0195 -2.88181,0.5435 -3.68185,-0.092 -15.24942,-0.7177 6.84439,-1.0665 11.96759,-9.3926 12.92819,-15.7398 0.9606,-6.3574 0.0798,-9.3105 -1.84138,-9.936 -1.9212,-0.6255 -3.68184,1.7021 -5.60304,1.7021 -1.9212,0 -4.08278,-0.9843 -6.32418,-2.2353 -2.24232,-1.251 -8.64541,0 -8.64541,0 0,0 7.0444,-5.814 8.88487,-9.3105 1.84138,-3.4864 6.56456,-7.7725 14.88976,-16.4576 -2.48178,-0.4511 -10.16658,4.0299 -10.16658,4.0299 0,0 -1.04042,-4.1221 -3.92222,-5.4654 -2.8818,-1.333 -10.64643,2.6865 -11.20701,2.42 -0.56058,-0.2667 -1.04134,-1.1588 -0.56058,-3.3941 2.08176,0 5.60396,-10.0283 6.0838,-14.499 0.48077,-4.4707 0.80096,-15.5654 -0.80004,-18.0674 -1.601,-2.5122 -2.8818,-4.8398 -2.2414,-8.2339 0.6404,-3.4043 -1.12116,-6.7983 -5.7636,-12.5302 0,0 -1.04134,22.7328 -1.36062,24.6914 -0.32112,1.9687 -1.20098,2.1533 -4.24334,9.8437 -3.04144,7.7006 -0.9606,26.1269 -2.8818,22.5893 -1.9212,-3.5273 -6.40401,-5.8139 -10.08677,-5.3628 -3.68184,0.4409 -3.8424,5.4961 -2.40104,7.8237 1.44044,2.3277 5.88379,9.3926 9.24544,15.709 3.36255,6.3062 1.72119,10.0591 1.72119,10.0591 0,0 -2.64143,0.5332 -8.72523,4.563 -6.0838,4.0297 -2.64142,14.2221 -2.64142,14.2221 0,0 -6.404,-3.6606 -11.12718,-3.0351 6.88384,7.957 22.17363,10.9101 22.17363,10.9101 0,0 -13.52823,5.0142 -21.53323,4.0298 -8.005918,-0.9844 -26.337148,-0.8921 -26.737158,-0.8921 -0.40003,0 17.2908,11.9869 17.2908,11.9869 0,0 -7.6848,-2.2355 -12.40798,0.3588 4.88282,5.4551 18.332148,5.6294 18.332148,5.6294 0,0 5.70304,3.8247 13.38784,4.2349 -0.0596,4.1528 9.34635,9.1874 9.34635,9.1874 0,0 -14.88976,7.875 -20.01296,8.7671 -5.123198,0.8921 -7.524238,-3.2197 -10.566598,-0.3589 -3.04144,2.8609 -0.6404,8.9517 5.28376,9.126 -4.16352,1.0766 -23.37461,6.4395 -23.37461,6.4395 0,0 15.20905,1.6098 17.93029,3.0454 2.72216,1.4355 14.569558,-0.5332 19.692758,-0.5332 5.1232,0 4.32316,3.5785 3.36256,5.9062 -0.96059,2.3174 -15.37052,8.2236 -23.375518,9.3003 -8.005,1.0766 -17.61009,2.6865 -17.61009,2.6865 0,0 5.44248,0.1743 12.64745,5.0039 7.20404,4.8296 20.012958,8.0596 20.012958,8.0596 l -12.487798,5.1884 c 0,0 15.209038,0 29.939168,3.3941 -5.76453,5.373 -25.456368,17.7187 -41.786578,20.5796 2.88089,2.5019 21.292848,12.3457 36.823018,2.3276 -4.96356,8.0493 -22.254368,17.3598 -29.939168,17.3598 -7.68481,0 -14.24937,-7.1572 -14.24937,-7.1572 0,0 0.32112,13.2378 14.56957,18.9595 -5.92416,-0.1743 -17.13116,3.5786 -17.13116,3.5786 0,0 27.858318,6.4497 52.193528,-0.8921 -4.16261,10.5615 -16.97061,14.3144 -26.416968,17.0009 -9.44636,2.6866 -12.64836,0 -28.33817,2.6866 16.81097,14.4887 34.262328,13.412 34.262328,13.412 0,0 -3.68276,5.3731 -27.538128,8.234 -23.85537,2.8608 -39.38461,-10.9102 -39.38461,-10.9102 0,0 9.2858,18.0674 47.22998,28.4443 -16.49077,6.9829 -35.70278,8.9516 -55.87539,3.2197 4.1626,6.624 21.13321,10.0284 21.13321,10.0284 0,0 -17.29081,1.4252 -33.14108,-7.5161 9.12516,21.4716 20.81292,22.3636 24.33512,22.7225 3.5222,0.3589 19.85333,15.3809 19.85333,15.3809 0,0 -28.49873,2.3276 -51.07284,-10.7358 7.68498,16.8266 32.02047,27.2035 32.02047,27.2035 0,0 -7.04441,0.8922 -21.45341,-5.373 9.36562,10.7359 38.90477,25.0503 86.614598,20.4053 -10.246408,16.0986 -60.838948,28.6288 -108.22902801,11.8022 28.81847001,34.3608 60.35865001,28.4546 60.35865001,28.4546 0,0 -15.68981,25.4089 -56.99618,18.0673 14.88967,19.3286 45.62953,17.893 45.62953,17.893 H 928.1743 l -26.2216,-21.328 c 19.0929,11.0024 52.3606,13.9553 63.1593,3.7526 -15.2485,4.9631 -33.2586,-12.7453 -33.2586,-12.7453 0,0 7.083,0.6665 12.0098,-3.2197 4.9177,-3.8965 8.7619,-5.373 18.2486,-7.3828 9.4868,-2.0201 13.4503,-9.5259 13.4503,-9.5259 0,0 -24.1389,1.0664 -30.864,0.7999 -6.716,-0.2667 -16.689,-0.2667 -36.7359,-19.462 21.0103,11.2793 58.838,13.6889 72.7653,2.02 -9.9638,2.6763 -22.0929,-2.5532 -22.0929,-2.5532 0,0 7.3215,-1.6098 15.3678,-5.0962 8.0463,-3.4965 16.1292,-15.8832 16.1292,-15.8832"
   style="fill:#000431;fill-opacity:1;fill-rule:nonzero;stroke:none;stroke-width:0.0969936"
   id="path216726" /><path
   fill="#3f4876"
   stroke="#3f4876"
   d="m 945.91822,1380.4419 c 4.5729,-4.827 12.34258,-7.3252 18.92667,-6.0972 2.62516,3.3449 4.17066,7.3886 6.13953,11.1994 3.26032,0.7833 6.64762,1.3761 9.84441,2.6887 3.81075,8.066 3.95894,17.233 4.42471,25.9977 -7.87555,-1.1644 -14.16326,-6.2666 -21.192,-9.4845 1.22792,4.6575 4.34005,9.1881 3.85308,14.142 -10.86054,7.8333 -28.55937,1.0587 -30.84582,-12.2155 -1.50317,-4.8269 -0.44488,-9.7386 1.5031,-14.2268 4.44591,0.995 9.03993,1.5455 13.65524,1.2068 -3.02748,-3.6626 -10.31027,-7.7274 -6.30892,-13.2106 z"
   id="path3927-7-6"
   style="stroke-width:2.11708;fill:#000431;fill-opacity:1" /><path
   fill="#404978"
   stroke="#404978"
   d="m 694.02776,1409.0436 c -0.14803,-7.4097 8.15072,-8.9128 13.90921,-9.5057 8.74355,-0.4024 17.78348,-0.2752 26.18833,2.5617 5.33505,1.5031 5.50436,7.8333 7.24038,12.1944 2.03248,-0.2328 4.06488,-0.4233 6.20314,-0.5713 0.29606,3.7472 0.8256,7.5157 1.41844,11.2841 4.76341,0.04 9.54803,0.024 14.35378,0.3808 8.29898,5.9491 9.69622,17.2754 12.51197,26.4424 0.36007,4.1918 0.46569,8.426 0.65613,12.6601 -2.43464,0.7834 -4.86928,1.482 -7.30391,2.1172 -3.40851,-0.9316 -5.54677,-3.9591 -7.6215,-6.4996 -4.67876,-9.1669 -12.99895,-16.5555 -23.83844,-16.1109 0.25365,6.3513 0.78336,12.7025 0.95275,19.0749 -8.02373,-0.9739 -17.06375,-0.4025 -23.60551,-5.8855 -5.39858,-3.8319 -8.06606,-10.035 -9.88674,-16.111 6.37237,-1.736 12.82948,-3.1121 19.28658,-4.6788 -0.80447,-6.0972 -2.39231,-13.2529 -8.57416,-16.0474 -7.04986,-4.2765 -17.31772,-3.5779 -21.89061,-11.3053 z"
   id="path3995-5-2"
   style="stroke-width:2.11708;fill:#000431;fill-opacity:1" /><path
   fill="#3c436d"
   stroke="#3c436d"
   d="m 1075.832,1844.6324 c 7.4098,4.9963 13.7822,11.3688 21.3613,16.1745 8.9341,5.3351 16.3016,12.7448 24.8123,18.7151 3.3026,-2.2442 6.6476,-4.4672 10.0349,-6.6478 0.8257,4.4036 0.6777,9.2517 2.8581,13.3165 8.3201,5.5044 18.6938,6.2666 27.7549,10.2044 8.2778,3.5143 17.1272,5.2926 26.1036,5.8007 -2.6251,3.832 -5.5468,7.4522 -8.7012,10.8819 -10.6277,0.1272 -21.1708,1.4396 -31.7774,1.5666 -8.4471,0.212 -16.1956,-3.472 -23.4573,-7.3039 0.9739,5.949 1.7996,11.9403 2.4348,17.974 -8.4895,0.04 -18.3764,1.7783 -25.3416,-4.2765 -6.7322,-5.2504 -8.4259,-13.9939 -9.2092,-21.9753 4.2976,-0.5081 8.6377,-0.9527 13.02,-1.3973 -10.3525,-8.1507 -18.9056,-18.4609 -24.4311,-30.4648 -4.086,-6.817 -6.5841,-14.5655 -5.4621,-22.5681 z"
   id="path3565-3-3-9"
   style="stroke-width:2.11708;fill:#000431;fill-opacity:1" /></g>
</svg>
